<svg width="255" height="255" viewBox="0 0 255 255" fill="none" xmlns="http://www.w3.org/2000/svg">
<g filter="url(#filter0_d_205_233)">
<rect x="48" y="40" width="155" height="155" rx="77.5" fill="url(#paint0_linear_205_233)"/>
</g>
<path d="M178.694 128.345V128.3C178.686 128.267 178.674 128.234 178.66 128.202C178.337 127.387 177.961 126.591 177.535 125.818L157.281 83.3231C157.086 82.9138 156.81 82.5417 156.468 82.2257C155.02 80.8889 153.301 79.8284 151.409 79.1049C149.517 78.3814 147.49 78.009 145.442 78.009C143.394 78.009 141.366 78.3814 139.475 79.1049C137.583 79.8284 135.864 80.8889 134.416 82.2257C133.688 82.8989 133.278 83.8109 133.276 84.7624V96.0067H117.685V84.7624C117.685 84.2898 117.585 83.8217 117.389 83.3849C117.194 82.9481 116.907 82.5511 116.545 82.2167C115.097 80.8799 113.378 79.8194 111.486 79.0959C109.595 78.3724 107.567 78 105.519 78C103.472 78 101.444 78.3724 99.552 79.0959C97.6602 79.8194 95.9413 80.8799 94.4935 82.2167C94.1508 82.5327 93.8749 82.9048 93.6799 83.3141L73.4458 125.818C73.0195 126.591 72.6437 127.387 72.3203 128.202C72.3067 128.232 72.2953 128.264 72.2862 128.296C72.2862 128.296 72.2862 128.332 72.2862 128.345C70.2739 133.713 70.6339 139.596 73.2882 144.72C75.9425 149.844 80.6771 153.796 86.4661 155.72C92.2551 157.643 98.632 157.383 104.215 154.996C109.798 152.609 114.137 148.288 116.292 142.968C117.24 140.578 117.719 138.051 117.705 135.506V103.203H133.295V135.51C133.281 138.055 133.76 140.582 134.708 142.972C136.863 148.292 141.202 152.614 146.785 155.001C152.368 157.388 158.745 157.648 164.534 155.724C170.323 153.801 175.058 149.849 177.712 144.725C180.366 139.601 180.726 133.717 178.714 128.35L178.694 128.345ZM108.949 140.489C107.51 144.035 104.615 146.914 100.893 148.502C97.1698 150.091 92.9189 150.262 89.0608 148.978C85.2027 147.693 82.0482 145.057 80.2808 141.64C78.5135 138.224 78.2756 134.302 79.6188 130.725L80.5007 128.867C82.1215 126.023 84.7268 123.761 87.9016 122.443C91.0764 121.124 94.6378 120.824 98.0186 121.591C101.399 122.358 104.405 124.147 106.556 126.674C108.708 129.2 109.881 132.319 109.89 135.533V135.587C109.889 137.265 109.571 138.93 108.949 140.507V140.489ZM162.022 149.111C159.665 149.908 157.135 150.167 154.646 149.868C152.158 149.568 149.784 148.718 147.728 147.391C145.671 146.063 143.992 144.297 142.833 142.242C141.674 140.186 141.07 137.904 141.071 135.587V135.537C141.084 132.325 142.261 129.209 144.414 126.686C146.567 124.162 149.572 122.376 152.952 121.611C156.332 120.847 159.891 121.148 163.064 122.467C166.237 123.786 168.84 126.047 170.46 128.89L171.342 130.747C172.729 134.324 172.527 138.262 170.781 141.702C169.035 145.142 165.886 147.806 162.022 149.111Z" fill="white"/>
<defs>
<filter id="filter0_d_205_233" x="0" y="0" width="255" height="255" filterUnits="userSpaceOnUse" color-interpolation-filters="sRGB">
<feFlood flood-opacity="0" result="BackgroundImageFix"/>
<feColorMatrix in="SourceAlpha" type="matrix" values="0 0 0 0 0 0 0 0 0 0 0 0 0 0 0 0 0 0 127 0" result="hardAlpha"/>
<feOffset dx="2" dy="10"/>
<feGaussianBlur stdDeviation="25"/>
<feComposite in2="hardAlpha" operator="out"/>
<feColorMatrix type="matrix" values="0 0 0 0 0.771354 0 0 0 0 0.771354 0 0 0 0 0.771354 0 0 0 0.5 0"/>
<feBlend mode="normal" in2="BackgroundImageFix" result="effect1_dropShadow_205_233"/>
<feBlend mode="normal" in="SourceGraphic" in2="effect1_dropShadow_205_233" result="shape"/>
</filter>
<linearGradient id="paint0_linear_205_233" x1="48" y1="117" x2="203" y2="117" gradientUnits="userSpaceOnUse">
<stop stop-color="#111A75"/>
<stop offset="1" stop-color="#3B48C8"/>
</linearGradient>
</defs>
</svg>
