<svg width="321" height="321" viewBox="0 0 321 321" fill="none" xmlns="http://www.w3.org/2000/svg">
<g filter="url(#filter0_d_218_231)">
<rect x="48" y="20" width="221" height="221" rx="30" fill="white"/>
</g>
<rect x="81" y="53" width="155" height="155" rx="20" fill="url(#paint0_linear_218_231)"/>
<path d="M102.299 89C101.03 89 100 90.0562 100 91.3576V170.642C100 171.944 101.03 172.999 102.299 173H214.701C215.97 173 217 171.944 217 170.642V91.3576C217 90.0562 215.97 89.0011 214.701 89H102.299ZM128.516 93.7186H143.007C146.739 94.9696 150.588 96.149 154.441 97.2298C162.935 99.6109 171.324 101.548 177.846 102.892C179.922 103.32 181.715 103.662 183.358 103.964C182.233 105.122 181.13 106.277 180.003 107.43L178.767 108.694C171.17 106.417 162.479 104.151 151.302 101.908C143.416 100.327 135.815 97.4683 128.516 93.7186ZM148.5 93.7186H165.41C169.983 94.8592 174.58 95.91 179.198 96.8702C182.393 97.5288 185.119 98.0384 187.136 98.3778C187.949 98.5171 188.764 98.6426 189.582 98.7541C190.191 98.8336 190.695 98.8493 190.512 98.8549L190.519 99.0318C192.195 97.2729 193.856 95.5017 195.504 93.7186H201.742C196.513 99.4978 190.612 105.595 184.702 111.641C173.238 123.366 161.997 134.808 157.295 141.743C158.661 143.672 159.391 145.949 159.389 148.279C159.389 150.288 158.855 152.181 157.914 153.838C162.707 157.425 166.288 162.637 169.53 168.281H164.107C161.317 163.745 158.363 159.833 154.943 157.296C153.385 158.539 151.528 159.389 149.539 159.771C147.551 160.152 145.494 160.052 143.557 159.479C142.444 162.47 141.182 165.407 139.776 168.283H134.593C136.38 164.762 138.01 161.149 139.386 157.327C136.653 155.173 134.905 151.913 134.905 148.279C134.905 145.197 136.172 142.39 138.223 140.293C131.308 125.497 118.818 117.893 104.599 109.812V104.577C119.683 113.095 134.077 121.197 142.1 137.619C143.984 136.789 146.06 136.437 148.128 136.595C150.195 136.754 152.186 137.419 153.908 138.525C159.372 130.782 170.212 119.901 181.282 108.578C183.14 106.677 184.974 104.772 186.816 102.866C186.631 102.836 186.52 102.823 186.323 102.789C183.61 102.324 180.906 101.81 178.213 101.249C171.728 99.9133 163.374 97.9835 154.934 95.617C152.78 95.012 150.636 94.3792 148.5 93.7186ZM172.659 93.7186H193.132C192.085 94.843 191.061 95.9552 189.971 97.1021C189.912 97.0965 189.881 97.0976 189.821 97.0898C189.025 96.9807 188.231 96.8582 187.439 96.7224C185.453 96.3875 182.744 95.8824 179.569 95.2283C177.261 94.748 174.959 94.2447 172.662 93.7186M204.071 93.7186H212.402V98.6298C212.353 98.6264 212.306 98.6163 212.257 98.6163H212.242C211.699 98.6183 211.179 98.8266 210.796 99.1955C210.413 99.5645 210.2 100.064 210.202 100.584C210.204 101.103 210.421 101.601 210.807 101.967C211.192 102.334 211.714 102.538 212.257 102.536C212.306 102.536 212.353 102.526 212.401 102.523V106.47C212.354 106.466 212.307 106.456 212.257 106.456H212.242C211.699 106.458 211.179 106.667 210.796 107.036C210.413 107.404 210.2 107.904 210.202 108.424C210.204 108.943 210.421 109.441 210.807 109.807C211.192 110.174 211.714 110.378 212.257 110.376C212.306 110.376 212.353 110.366 212.401 110.363V114.31C212.354 114.306 212.307 114.296 212.257 114.296C211.714 114.296 211.193 114.503 210.809 114.87C210.425 115.238 210.209 115.736 210.209 116.256C210.209 116.776 210.425 117.275 210.809 117.642C211.193 118.01 211.714 118.216 212.257 118.216C212.306 118.216 212.353 118.206 212.401 118.203V119.653C211.475 119.372 210.531 119.091 209.629 118.809C209.398 118.583 209.114 118.413 208.8 118.315C208.487 118.217 208.153 118.192 207.827 118.244C207.077 118.006 206.357 117.768 205.623 117.53C205.84 117.287 205.992 116.997 206.065 116.685C206.138 116.372 206.13 116.048 206.042 115.74C205.954 115.431 205.789 115.148 205.56 114.915C205.331 114.682 205.047 114.505 204.731 114.402C204.415 114.298 204.077 114.27 203.747 114.32C203.417 114.37 203.105 114.496 202.838 114.688C202.571 114.88 202.357 115.132 202.214 115.421C202.072 115.71 202.006 116.029 202.022 116.348C200.353 115.789 198.72 115.23 197.082 114.673C196.76 114.448 196.377 114.318 195.98 114.299C195.149 114.015 194.303 113.731 193.469 113.447C193.775 113.023 193.893 112.5 193.799 111.992C193.705 111.484 193.406 111.033 192.966 110.735L191.099 112.65C189.874 112.236 188.573 111.823 187.319 111.411C193.169 105.424 198.964 99.4205 204.071 93.7186ZM209.992 95.7794C208.639 96.0997 207.491 96.6619 206.32 97.5098C206.434 97.748 206.597 97.962 206.799 98.139C207 98.316 207.237 98.4525 207.495 98.5404C207.753 98.6283 208.027 98.6658 208.3 98.6507C208.573 98.6356 208.841 98.5682 209.086 98.4525C209.332 98.3368 209.551 98.1751 209.73 97.977C209.909 97.7789 210.045 97.5485 210.129 97.2993C210.214 97.05 210.245 96.7871 210.222 96.5261C210.198 96.265 210.119 96.0111 209.992 95.7794ZM204.82 98.7541C203.905 99.5743 203.02 100.425 202.167 101.304C202.293 101.606 202.495 101.873 202.755 102.081C203.015 102.289 203.326 102.432 203.658 102.497C203.99 102.562 204.334 102.547 204.659 102.454C204.984 102.36 205.279 102.19 205.519 101.96C205.758 101.73 205.934 101.447 206.031 101.135C206.127 100.824 206.142 100.495 206.072 100.177C206.003 99.859 205.853 99.5626 205.634 99.3142C205.415 99.0659 205.136 98.8734 204.82 98.7541ZM104.603 100.983C125.797 114.462 143.487 120.023 164.578 123.344C160.126 128.081 156.226 132.483 153.379 136.311C151.449 135.372 149.315 134.881 147.15 134.877C145.698 134.877 144.294 135.095 142.973 135.496C134.416 119.195 119.615 111.091 104.603 102.617V100.983ZM208.148 102.536C207.879 102.538 207.613 102.591 207.365 102.691C207.118 102.792 206.893 102.938 206.705 103.121C206.516 103.304 206.367 103.522 206.266 103.76C206.165 103.999 206.114 104.254 206.116 104.511C206.118 104.769 206.173 105.023 206.278 105.26C206.383 105.497 206.535 105.712 206.727 105.893C206.919 106.074 207.145 106.216 207.395 106.313C207.644 106.41 207.91 106.458 208.179 106.456C208.722 106.452 209.242 106.242 209.623 105.872C210.004 105.501 210.215 105.001 210.211 104.481C210.207 103.961 209.987 103.464 209.6 103.1C209.213 102.735 208.691 102.532 208.148 102.536ZM200.8 102.702L198.161 105.408C198.313 105.685 198.532 105.923 198.8 106.102C199.068 106.281 199.377 106.396 199.7 106.437C200.024 106.479 200.354 106.446 200.661 106.34C200.969 106.235 201.246 106.061 201.469 105.832C201.692 105.604 201.854 105.327 201.943 105.026C202.032 104.725 202.044 104.408 201.978 104.102C201.913 103.796 201.772 103.509 201.567 103.265C201.362 103.022 201.099 102.829 200.8 102.702ZM204.053 106.456C203.784 106.458 203.518 106.511 203.27 106.611C203.023 106.712 202.798 106.858 202.61 107.041C202.421 107.224 202.272 107.442 202.171 107.68C202.07 107.919 202.019 108.174 202.021 108.431C202.023 108.689 202.078 108.943 202.183 109.18C202.288 109.417 202.44 109.632 202.632 109.813C202.824 109.994 203.05 110.136 203.3 110.233C203.549 110.33 203.815 110.378 204.084 110.376C204.627 110.372 205.147 110.162 205.528 109.792C205.909 109.421 206.12 108.921 206.116 108.401C206.112 107.881 205.892 107.384 205.505 107.02C205.118 106.655 204.596 106.452 204.053 106.456ZM196.891 106.712L194.173 109.499C194.344 109.746 194.571 109.952 194.838 110.103C195.104 110.254 195.402 110.345 195.711 110.369C196.019 110.393 196.329 110.351 196.617 110.244C196.906 110.137 197.165 109.969 197.376 109.753C197.587 109.536 197.744 109.277 197.836 108.994C197.927 108.711 197.95 108.412 197.903 108.12C197.857 107.827 197.741 107.548 197.566 107.305C197.391 107.061 197.16 106.858 196.891 106.712ZM199.957 110.376C199.688 110.378 199.422 110.431 199.174 110.532C198.927 110.632 198.702 110.778 198.514 110.961C198.325 111.145 198.176 111.362 198.075 111.601C197.974 111.839 197.923 112.095 197.925 112.352C197.928 112.609 197.983 112.864 198.088 113.101C198.192 113.338 198.345 113.553 198.537 113.733C198.728 113.914 198.955 114.057 199.205 114.153C199.454 114.25 199.72 114.298 199.989 114.296C200.532 114.292 201.052 114.082 201.433 113.712C201.814 113.341 202.025 112.841 202.021 112.321C202.017 111.801 201.797 111.304 201.41 110.94C201.023 110.575 200.5 110.372 199.957 110.376ZM208.148 110.376C207.879 110.378 207.613 110.431 207.365 110.532C207.118 110.632 206.893 110.778 206.705 110.961C206.516 111.145 206.367 111.362 206.266 111.601C206.165 111.839 206.115 112.095 206.117 112.352C206.119 112.609 206.174 112.864 206.279 113.101C206.384 113.338 206.536 113.553 206.728 113.733C206.92 113.914 207.147 114.057 207.396 114.153C207.645 114.25 207.912 114.298 208.181 114.296C208.724 114.292 209.243 114.082 209.624 113.712C210.005 113.341 210.216 112.841 210.212 112.321C210.208 111.801 209.988 111.304 209.601 110.94C209.214 110.575 208.691 110.372 208.148 110.376ZM104.604 111.774C118.033 119.435 129.55 126.64 136.172 140.024C134.292 142.306 133.155 145.172 133.155 148.278C133.155 151.994 134.772 155.371 137.358 157.808C135.996 161.442 134.398 164.898 132.65 168.281H127.586L130.804 162.948L127.385 161.059L128.603 159.037L123.868 156.421L116.713 168.281H104.599V129.118L113.59 134.25L119.18 125.277L104.6 116.953L104.604 111.774ZM174.389 124.769C177.103 125.201 179.735 125.802 182.263 126.528C181.986 126.754 181.778 127.047 181.659 127.376C181.539 127.704 181.514 128.058 181.585 128.399C181.656 128.741 181.82 129.058 182.061 129.318C182.303 129.579 182.612 129.773 182.958 129.881C183.303 129.989 183.673 130.007 184.028 129.933C184.384 129.859 184.712 129.696 184.98 129.46C185.247 129.224 185.444 128.925 185.551 128.592C185.657 128.259 185.669 127.905 185.585 127.566C187.187 128.107 188.733 128.686 190.23 129.291C190.434 129.518 190.688 129.698 190.975 129.816C191.262 129.935 191.574 129.989 191.886 129.974C192.645 130.299 193.379 130.628 194.105 130.96C193.967 131.191 193.88 131.447 193.849 131.712C193.818 131.977 193.844 132.245 193.924 132.501C194.005 132.756 194.14 132.992 194.319 133.196C194.499 133.4 194.72 133.566 194.97 133.685C195.219 133.804 195.491 133.873 195.769 133.888C196.047 133.903 196.325 133.864 196.587 133.772C196.848 133.68 197.088 133.539 197.29 133.356C197.493 133.172 197.654 132.952 197.764 132.707C198.575 133.113 199.273 133.5 200.028 133.899C200.005 133.897 199.983 133.897 199.96 133.896C199.504 133.899 199.062 134.048 198.704 134.319C198.346 134.59 198.093 134.967 197.985 135.391C197.877 135.816 197.92 136.262 198.107 136.66C198.294 137.059 198.615 137.386 199.018 137.59C199.422 137.793 199.885 137.862 200.334 137.786C200.783 137.709 201.192 137.491 201.497 137.166C201.802 136.842 201.985 136.429 202.017 135.993C202.049 135.558 201.928 135.124 201.673 134.762C205.413 136.789 208.362 138.548 210.246 139.435C210.193 139.717 210.206 140.006 210.284 140.283C210.361 140.559 210.501 140.816 210.693 141.036C210.885 141.255 211.125 141.431 211.396 141.552C211.667 141.674 211.962 141.736 212.261 141.736C212.311 141.736 212.355 141.72 212.404 141.716V145.67C212.357 145.666 212.311 145.656 212.26 145.656H212.245C211.702 145.658 211.182 145.867 210.8 146.236C210.417 146.604 210.203 147.104 210.205 147.624C210.207 148.143 210.425 148.641 210.81 149.007C211.196 149.374 211.717 149.578 212.26 149.576C212.309 149.576 212.356 149.566 212.404 149.563V153.51C212.357 153.506 212.311 153.496 212.26 153.496C211.717 153.496 211.197 153.703 210.813 154.07C210.429 154.438 210.213 154.936 210.213 155.456C210.213 155.976 210.429 156.475 210.813 156.842C211.197 157.21 211.717 157.416 212.26 157.416C212.309 157.416 212.356 157.406 212.404 157.403V168.281H171.545C168.386 162.659 164.888 157.308 160.085 153.359C160.891 151.505 161.245 149.5 161.121 147.496C160.997 145.491 160.397 143.541 159.368 141.791C162.437 137.527 168.003 131.449 174.384 124.769H174.389ZM179.501 129.976C179.246 129.976 178.994 130.021 178.756 130.111C178.543 131.302 178.507 132.516 178.649 133.717C178.927 133.84 179.23 133.901 179.536 133.896C179.842 133.891 180.143 133.821 180.417 133.69C180.691 133.56 180.931 133.372 181.119 133.141C181.307 132.909 181.439 132.641 181.504 132.354C181.57 132.068 181.567 131.771 181.497 131.486C181.426 131.201 181.29 130.934 181.098 130.706C180.906 130.478 180.663 130.294 180.386 130.168C180.11 130.041 179.808 129.976 179.501 129.976ZM187.691 129.976C187.148 129.976 186.628 130.183 186.244 130.55C185.86 130.918 185.644 131.416 185.644 131.936C185.644 132.456 185.86 132.955 186.244 133.322C186.628 133.69 187.148 133.896 187.691 133.896C188.235 133.896 188.755 133.69 189.139 133.322C189.523 132.955 189.739 132.456 189.739 131.936C189.739 131.416 189.523 130.918 189.139 130.55C188.755 130.183 188.235 129.976 187.691 129.976ZM121.295 133.68L117.056 140.708L114.212 145.423L121.554 149.482L124.399 144.766L127.315 146.379L131.554 139.35L128.638 137.737L121.295 133.68ZM183.58 133.896C183.311 133.898 183.045 133.951 182.798 134.051C182.55 134.152 182.326 134.298 182.137 134.481C181.756 134.851 181.544 135.352 181.548 135.871C181.553 136.391 181.772 136.888 182.159 137.253C182.546 137.618 183.069 137.82 183.612 137.816C184.155 137.812 184.674 137.602 185.055 137.232C185.436 136.861 185.648 136.361 185.643 135.841C185.639 135.321 185.419 134.824 185.033 134.46C184.646 134.095 184.123 133.892 183.58 133.896ZM191.77 133.896C191.501 133.898 191.235 133.951 190.988 134.051C190.74 134.152 190.516 134.298 190.327 134.481C189.946 134.851 189.734 135.352 189.738 135.871C189.743 136.391 189.962 136.888 190.349 137.253C190.736 137.618 191.259 137.82 191.802 137.816C192.345 137.812 192.864 137.602 193.245 137.232C193.626 136.861 193.838 136.361 193.833 135.841C193.829 135.321 193.609 134.824 193.223 134.46C192.836 134.095 192.313 133.892 191.77 133.896ZM187.675 137.816C187.406 137.818 187.14 137.871 186.893 137.971C186.645 138.072 186.421 138.218 186.232 138.401C186.043 138.584 185.894 138.802 185.793 139.04C185.692 139.279 185.641 139.534 185.643 139.791C185.645 140.049 185.7 140.303 185.805 140.54C185.91 140.777 186.063 140.992 186.254 141.173C186.446 141.354 186.673 141.496 186.922 141.593C187.171 141.69 187.438 141.738 187.707 141.736C188.25 141.732 188.769 141.522 189.15 141.152C189.531 140.781 189.743 140.281 189.738 139.761C189.734 139.241 189.514 138.744 189.128 138.38C188.741 138.015 188.218 137.812 187.675 137.816ZM195.865 137.816C195.596 137.818 195.33 137.871 195.083 137.971C194.835 138.072 194.611 138.218 194.422 138.401C194.233 138.584 194.084 138.802 193.983 139.04C193.882 139.279 193.831 139.534 193.833 139.791C193.835 140.049 193.89 140.303 193.995 140.54C194.1 140.777 194.253 140.992 194.444 141.173C194.636 141.354 194.863 141.496 195.112 141.593C195.361 141.69 195.628 141.738 195.897 141.736C196.44 141.732 196.959 141.522 197.34 141.152C197.721 140.781 197.933 140.281 197.928 139.761C197.924 139.241 197.704 138.744 197.318 138.38C196.931 138.015 196.408 137.812 195.865 137.816ZM204.055 137.816C203.786 137.818 203.52 137.871 203.273 137.971C203.025 138.072 202.801 138.218 202.612 138.401C202.423 138.584 202.274 138.802 202.173 139.04C202.072 139.279 202.021 139.534 202.023 139.791C202.025 140.049 202.08 140.303 202.185 140.54C202.29 140.777 202.443 140.992 202.634 141.173C202.826 141.354 203.053 141.496 203.302 141.593C203.551 141.69 203.818 141.738 204.087 141.736C204.63 141.732 205.149 141.522 205.53 141.152C205.911 140.781 206.123 140.281 206.118 139.761C206.114 139.241 205.894 138.744 205.508 138.38C205.121 138.015 204.598 137.812 204.055 137.816ZM179.821 137.84C179.836 137.875 179.845 137.908 179.862 137.943C179.839 139.205 179.785 140.466 179.699 141.725C180.194 141.678 180.654 141.46 180.993 141.112C181.332 140.764 181.527 140.309 181.542 139.834C181.557 139.358 181.39 138.893 181.074 138.526C180.757 138.16 180.312 137.916 179.821 137.84ZM147.152 141.039C146.158 141.034 145.172 141.219 144.253 141.581C143.333 141.943 142.497 142.477 141.794 143.15C141.091 143.823 140.535 144.623 140.156 145.504C139.778 146.384 139.586 147.327 139.59 148.279C139.586 149.231 139.778 150.175 140.156 151.055C140.535 151.935 141.091 152.735 141.795 153.408C142.498 154.081 143.333 154.614 144.253 154.976C145.172 155.338 146.158 155.523 147.152 155.518C148.147 155.523 149.132 155.338 150.052 154.976C150.972 154.614 151.807 154.081 152.511 153.408C153.214 152.735 153.771 151.935 154.15 151.055C154.528 150.175 154.721 149.231 154.716 148.279C154.721 147.327 154.528 146.384 154.15 145.503C153.771 144.623 153.214 143.823 152.511 143.149C151.808 142.476 150.972 141.943 150.052 141.581C149.132 141.218 148.147 141.034 147.152 141.039ZM183.58 141.736C183.311 141.738 183.045 141.791 182.798 141.891C182.55 141.992 182.326 142.138 182.137 142.321C181.948 142.504 181.799 142.722 181.698 142.96C181.597 143.199 181.546 143.454 181.548 143.711C181.55 143.969 181.605 144.223 181.71 144.46C181.815 144.697 181.968 144.912 182.159 145.093C182.351 145.274 182.578 145.416 182.827 145.513C183.076 145.61 183.343 145.658 183.612 145.656C184.155 145.652 184.674 145.442 185.055 145.072C185.436 144.701 185.648 144.201 185.643 143.681C185.639 143.161 185.419 142.664 185.033 142.3C184.646 141.935 184.123 141.732 183.58 141.736ZM191.77 141.736C191.501 141.738 191.235 141.791 190.988 141.891C190.74 141.992 190.516 142.138 190.327 142.321C190.138 142.504 189.989 142.722 189.888 142.96C189.787 143.199 189.736 143.454 189.738 143.711C189.74 143.969 189.795 144.223 189.9 144.46C190.005 144.697 190.158 144.912 190.349 145.093C190.541 145.274 190.768 145.416 191.017 145.513C191.266 145.61 191.533 145.658 191.802 145.656C192.345 145.652 192.864 145.442 193.245 145.072C193.626 144.701 193.838 144.201 193.833 143.681C193.829 143.161 193.609 142.664 193.223 142.3C192.836 141.935 192.313 141.732 191.77 141.736ZM199.96 141.736C199.691 141.738 199.425 141.791 199.178 141.891C198.93 141.992 198.706 142.138 198.517 142.321C198.328 142.504 198.179 142.722 198.078 142.96C197.977 143.199 197.926 143.454 197.928 143.711C197.93 143.969 197.985 144.223 198.09 144.46C198.195 144.697 198.348 144.912 198.539 145.093C198.731 145.274 198.958 145.416 199.207 145.513C199.456 145.61 199.723 145.658 199.992 145.656C200.535 145.652 201.054 145.442 201.435 145.072C201.816 144.701 202.028 144.201 202.023 143.681C202.019 143.161 201.799 142.664 201.413 142.3C201.026 141.935 200.503 141.732 199.96 141.736ZM208.15 141.736C207.881 141.738 207.615 141.791 207.368 141.891C207.12 141.992 206.896 142.138 206.707 142.321C206.518 142.504 206.369 142.722 206.268 142.96C206.167 143.199 206.116 143.454 206.118 143.711C206.12 143.969 206.175 144.223 206.28 144.46C206.385 144.697 206.538 144.912 206.729 145.093C206.921 145.274 207.148 145.416 207.397 145.513C207.646 145.61 207.913 145.658 208.182 145.656C208.725 145.652 209.244 145.442 209.625 145.072C210.006 144.701 210.218 144.201 210.213 143.681C210.209 143.161 209.989 142.664 209.603 142.3C209.216 141.935 208.693 141.732 208.15 141.736ZM147.152 142.719C150.408 142.719 152.961 145.162 152.961 148.279C152.961 151.396 150.408 153.838 147.152 153.838C143.896 153.838 141.345 151.396 141.345 148.279C141.345 145.162 143.896 142.719 147.152 142.719ZM187.675 145.656C187.406 145.658 187.14 145.711 186.893 145.811C186.645 145.912 186.421 146.058 186.232 146.241C186.043 146.424 185.894 146.642 185.793 146.88C185.692 147.119 185.641 147.374 185.643 147.631C185.645 147.889 185.7 148.143 185.805 148.38C185.91 148.617 186.063 148.832 186.254 149.013C186.446 149.194 186.673 149.336 186.922 149.433C187.171 149.53 187.438 149.578 187.707 149.576C188.25 149.572 188.769 149.362 189.15 148.992C189.531 148.621 189.743 148.121 189.738 147.601C189.734 147.081 189.514 146.584 189.128 146.22C188.741 145.855 188.218 145.652 187.675 145.656ZM195.865 145.656C195.596 145.658 195.33 145.711 195.083 145.811C194.835 145.912 194.611 146.058 194.422 146.241C194.233 146.424 194.084 146.642 193.983 146.88C193.882 147.119 193.831 147.374 193.833 147.631C193.835 147.889 193.89 148.143 193.995 148.38C194.1 148.617 194.253 148.832 194.444 149.013C194.636 149.194 194.863 149.336 195.112 149.433C195.361 149.53 195.628 149.578 195.897 149.576C196.44 149.572 196.959 149.362 197.34 148.992C197.721 148.621 197.933 148.121 197.928 147.601C197.924 147.081 197.704 146.584 197.318 146.22C196.931 145.855 196.408 145.652 195.865 145.656ZM204.055 145.656C203.786 145.658 203.52 145.711 203.273 145.811C203.025 145.912 202.801 146.058 202.612 146.241C202.423 146.424 202.274 146.642 202.173 146.88C202.072 147.119 202.021 147.374 202.023 147.631C202.025 147.889 202.08 148.143 202.185 148.38C202.29 148.617 202.443 148.832 202.634 149.013C202.826 149.194 203.053 149.336 203.302 149.433C203.551 149.53 203.818 149.578 204.087 149.576C204.63 149.572 205.149 149.362 205.53 148.992C205.911 148.621 206.123 148.121 206.118 147.601C206.114 147.081 205.894 146.584 205.508 146.22C205.121 145.855 204.598 145.652 204.055 145.656ZM179.843 145.682C180.105 146.305 180.613 146.796 181.533 147.378C181.479 146.959 181.286 146.567 180.982 146.262C180.677 145.956 180.278 145.753 179.843 145.682ZM191.77 149.576C191.501 149.578 191.235 149.631 190.988 149.731C190.74 149.832 190.516 149.978 190.327 150.161C190.138 150.344 189.989 150.562 189.888 150.8C189.787 151.039 189.736 151.294 189.738 151.551C189.74 151.809 189.795 152.063 189.9 152.3C190.005 152.537 190.158 152.752 190.349 152.933C190.541 153.114 190.768 153.256 191.017 153.353C191.266 153.45 191.533 153.498 191.802 153.496C192.345 153.492 192.864 153.282 193.245 152.912C193.626 152.541 193.838 152.041 193.833 151.521C193.829 151.001 193.609 150.504 193.223 150.14C192.836 149.775 192.313 149.572 191.77 149.576ZM199.96 149.576C199.691 149.578 199.425 149.631 199.178 149.731C198.93 149.832 198.706 149.978 198.517 150.161C198.328 150.344 198.179 150.562 198.078 150.8C197.977 151.039 197.926 151.294 197.928 151.551C197.93 151.809 197.985 152.063 198.09 152.3C198.195 152.537 198.348 152.752 198.539 152.933C198.731 153.114 198.958 153.256 199.207 153.353C199.456 153.45 199.723 153.498 199.992 153.496C200.535 153.492 201.054 153.282 201.435 152.912C201.816 152.541 202.028 152.041 202.023 151.521C202.019 151.001 201.799 150.504 201.413 150.14C201.026 149.775 200.503 149.572 199.96 149.576ZM208.15 149.576C207.881 149.578 207.615 149.631 207.368 149.731C207.12 149.832 206.896 149.978 206.707 150.161C206.518 150.344 206.369 150.562 206.268 150.8C206.167 151.039 206.116 151.294 206.118 151.551C206.12 151.809 206.175 152.063 206.28 152.3C206.385 152.537 206.538 152.752 206.729 152.933C206.921 153.114 207.148 153.256 207.397 153.353C207.646 153.45 207.913 153.498 208.182 153.496C208.725 153.492 209.244 153.282 209.625 152.912C210.006 152.541 210.218 152.041 210.213 151.521C210.209 151.001 209.989 150.504 209.603 150.14C209.216 149.775 208.693 149.572 208.15 149.576ZM176.998 151.562C173.221 151.562 170.122 154.53 170.122 158.144C170.122 161.76 173.222 164.724 176.998 164.724C180.773 164.724 183.871 161.76 183.871 158.144C183.871 154.53 180.773 151.562 176.998 151.562ZM195.874 153.496C195.474 153.496 195.083 153.609 194.749 153.819C194.414 154.03 194.152 154.33 193.994 154.681C193.836 155.033 193.788 155.422 193.858 155.799C193.928 156.176 194.112 156.525 194.387 156.804L197.385 156.78C197.653 156.5 197.831 156.151 197.895 155.775C197.96 155.4 197.909 155.015 197.749 154.667C197.589 154.319 197.327 154.023 196.994 153.815C196.662 153.607 196.272 153.496 195.874 153.496ZM204.066 153.496C203.674 153.497 203.29 153.605 202.96 153.807C202.63 154.01 202.368 154.299 202.205 154.641C202.042 154.982 201.985 155.361 202.04 155.732C202.095 156.104 202.261 156.452 202.517 156.736L205.638 156.71C205.887 156.423 206.046 156.075 206.096 155.706C206.145 155.337 206.084 154.961 205.919 154.624C205.754 154.287 205.492 154.001 205.164 153.801C204.836 153.602 204.455 153.496 204.066 153.496ZM176.999 154.921C177.442 154.918 177.881 154.999 178.291 155.16C178.7 155.321 179.072 155.558 179.386 155.858C179.699 156.158 179.946 156.514 180.114 156.907C180.282 157.299 180.366 157.719 180.363 158.143C180.366 158.567 180.282 158.987 180.114 159.379C179.946 159.772 179.698 160.128 179.385 160.428C179.072 160.727 178.7 160.964 178.29 161.125C177.881 161.286 177.442 161.367 176.999 161.363C176.556 161.367 176.117 161.286 175.707 161.125C175.297 160.965 174.925 160.728 174.612 160.428C174.298 160.128 174.05 159.772 173.882 159.38C173.714 158.987 173.63 158.567 173.633 158.143C173.629 157.719 173.714 157.299 173.882 156.906C174.05 156.514 174.298 156.157 174.611 155.857C174.924 155.558 175.297 155.32 175.707 155.16C176.117 154.999 176.556 154.918 176.999 154.921ZM154.871 159.423C157.407 161.587 159.754 164.695 162.029 168.28H141.711C142.762 166.064 143.772 163.809 144.683 161.453C145.486 161.592 146.306 161.677 147.147 161.677C149.994 161.677 152.651 160.842 154.871 159.423Z" fill="white"/>
<defs>
<filter id="filter0_d_218_231" x="0" y="0" width="321" height="321" filterUnits="userSpaceOnUse" color-interpolation-filters="sRGB">
<feFlood flood-opacity="0" result="BackgroundImageFix"/>
<feColorMatrix in="SourceAlpha" type="matrix" values="0 0 0 0 0 0 0 0 0 0 0 0 0 0 0 0 0 0 127 0" result="hardAlpha"/>
<feOffset dx="2" dy="30"/>
<feGaussianBlur stdDeviation="25"/>
<feComposite in2="hardAlpha" operator="out"/>
<feColorMatrix type="matrix" values="0 0 0 0 0.844063 0 0 0 0 0.9375 0 0 0 0 0.835938 0 0 0 0.5 0"/>
<feBlend mode="normal" in2="BackgroundImageFix" result="effect1_dropShadow_218_231"/>
<feBlend mode="normal" in="SourceGraphic" in2="effect1_dropShadow_218_231" result="shape"/>
</filter>
<linearGradient id="paint0_linear_218_231" x1="81" y1="130" x2="236" y2="130" gradientUnits="userSpaceOnUse">
<stop stop-color="#974416"/>
<stop offset="1" stop-color="#E65100"/>
</linearGradient>
</defs>
</svg>
