<svg width="155" height="155" viewBox="0 0 155 155" fill="none" xmlns="http://www.w3.org/2000/svg">
<rect width="155" height="155" rx="20" fill="url(#paint0_linear_218_256)"/>
<path d="M21.299 36C20.0296 36 19 37.0562 19 38.3576V117.642C19 118.944 20.0296 119.999 21.299 120H133.701C134.97 120 136 118.944 136 117.642V38.3576C136 37.0562 134.97 36.0011 133.701 36H21.299ZM47.5164 40.7186H62.0069C65.7392 41.9696 69.5885 43.149 73.4413 44.2298C81.9355 46.6109 90.3244 48.5485 96.846 49.8925C98.9215 50.3203 100.715 50.6619 102.358 50.9643C101.233 52.1224 100.13 53.2771 99.0034 54.4296L97.7667 55.6941C90.1699 53.4171 81.4792 51.1514 70.3022 48.908C62.4164 47.3266 54.8149 44.4683 47.5164 40.7186ZM67.5 40.7186H84.41C88.9832 41.8592 93.5803 42.91 98.1985 43.8702C101.393 44.5288 104.119 45.0384 106.136 45.3778C106.949 45.5171 107.764 45.6426 108.582 45.7541C109.191 45.8336 109.695 45.8493 109.512 45.8549L109.519 46.0318C111.195 44.2729 112.856 42.5017 114.504 40.7186H120.742C115.513 46.4978 109.612 52.595 103.702 58.6408C92.2385 70.3661 80.9971 81.808 76.2949 88.743C77.6613 90.6718 78.3909 92.9489 78.3892 95.2794C78.3892 97.2875 77.8545 99.1814 76.9138 100.838C81.7073 104.425 85.2875 109.637 88.5296 115.281H83.1066C80.3174 110.745 77.3631 106.833 73.9432 104.296C72.3851 105.539 70.5276 106.389 68.5392 106.771C66.5509 107.152 64.4945 107.052 62.5568 106.479C61.4437 109.47 60.1821 112.407 58.7765 115.283H53.5934C55.38 111.762 57.0098 108.149 58.3857 104.327C55.6526 102.173 53.9046 98.9126 53.9046 95.2794C53.9046 92.1971 55.1717 89.3904 57.2227 87.2926C50.308 72.4974 37.8183 64.8926 23.5993 56.8118V51.577C38.6829 60.0946 53.0774 68.1966 61.1001 84.6192C62.9845 83.7892 65.06 83.4367 67.1276 83.5953C69.1952 83.754 71.1856 84.4186 72.9077 85.5253C78.3716 77.7816 89.2117 66.9008 100.282 55.5776C102.14 53.677 103.974 51.7718 105.816 49.8656C105.631 49.8365 105.52 49.823 105.323 49.7894C102.61 49.3238 99.9063 48.8104 97.2133 48.2494C90.728 46.9133 82.3742 44.9835 73.9338 42.617C71.78 42.012 69.6359 41.3792 67.5 40.7186ZM91.6593 40.7186H112.132C111.085 41.843 110.061 42.9552 108.971 44.1021C108.912 44.0965 108.881 44.0976 108.821 44.0898C108.025 43.9807 107.231 43.8582 106.439 43.7224C104.453 43.3875 101.744 42.8824 98.5694 42.2283C96.2614 41.748 93.9587 41.2447 91.6617 40.7186M123.071 40.7186H131.402V45.6298C131.353 45.6264 131.306 45.6163 131.257 45.6163H131.242C130.699 45.6183 130.179 45.8266 129.796 46.1955C129.413 46.5645 129.2 47.0638 129.202 47.5836C129.204 48.1034 129.421 48.6012 129.807 48.9674C130.192 49.3336 130.714 49.5383 131.257 49.5363C131.306 49.5363 131.353 49.5262 131.401 49.5229V53.4698C131.354 53.4664 131.307 53.4563 131.257 53.4563H131.242C130.699 53.4583 130.179 53.6666 129.796 54.0355C129.413 54.4045 129.2 54.9038 129.202 55.4236C129.204 55.9434 129.421 56.4412 129.807 56.8074C130.192 57.1736 130.714 57.3783 131.257 57.3763C131.306 57.3763 131.353 57.3662 131.401 57.3629V61.3098C131.354 61.3064 131.307 61.2963 131.257 61.2963C130.714 61.2963 130.193 61.5028 129.809 61.8704C129.425 62.238 129.209 62.7365 129.209 63.2563C129.209 63.7761 129.425 64.2747 129.809 64.6422C130.193 65.0098 130.714 65.2163 131.257 65.2163C131.306 65.2163 131.353 65.2062 131.401 65.2029V66.6533C130.475 66.3722 129.531 66.091 128.629 65.8088C128.398 65.5826 128.114 65.4132 127.8 65.3149C127.487 65.2166 127.153 65.1924 126.827 65.2443C126.077 65.0058 125.357 64.7683 124.623 64.5298C124.84 64.2867 124.992 63.9966 125.065 63.6845C125.138 63.3725 125.13 63.0481 125.042 62.7396C124.954 62.4311 124.789 62.1479 124.56 61.9147C124.331 61.6815 124.047 61.5054 123.731 61.4017C123.415 61.298 123.077 61.2699 122.747 61.3199C122.417 61.3698 122.105 61.4963 121.838 61.6883C121.571 61.8802 121.357 62.1318 121.214 62.4212C121.072 62.7105 121.006 63.0287 121.022 63.3482C119.353 62.7893 117.72 62.2304 116.082 61.6726C115.76 61.448 115.377 61.318 114.98 61.2986C114.149 61.0152 113.303 60.7307 112.469 60.4474C112.775 60.0228 112.893 59.4999 112.799 58.9922C112.705 58.4844 112.406 58.0326 111.966 57.7347L110.099 59.6499C108.874 59.2355 107.573 58.8234 106.319 58.4112C112.169 52.4237 117.964 46.4205 123.071 40.7186ZM128.992 42.7794C127.639 43.0997 126.491 43.6619 125.32 44.5098C125.434 44.748 125.597 44.962 125.799 45.139C126 45.316 126.237 45.4525 126.495 45.5404C126.753 45.6283 127.027 45.6658 127.3 45.6507C127.573 45.6356 127.841 45.5682 128.086 45.4525C128.332 45.3368 128.551 45.1751 128.73 44.977C128.909 44.7789 129.045 44.5485 129.129 44.2993C129.214 44.05 129.245 43.7871 129.222 43.5261C129.198 43.265 129.119 43.0111 128.992 42.7794ZM123.82 45.7541C122.905 46.5743 122.02 47.4249 121.167 48.3043C121.293 48.6059 121.495 48.8727 121.755 49.081C122.015 49.2892 122.326 49.4323 122.658 49.4973C122.99 49.5623 123.334 49.5473 123.659 49.4535C123.984 49.3598 124.279 49.1903 124.519 48.9602C124.758 48.7301 124.934 48.4467 125.031 48.1354C125.127 47.8242 125.142 47.4948 125.072 47.1769C125.003 46.859 124.853 46.5626 124.634 46.3142C124.415 46.0659 124.136 45.8734 123.82 45.7541ZM23.6028 47.9829C44.7973 61.4621 62.4866 67.0229 83.5781 70.3437C79.1263 75.0813 75.2255 79.4829 72.3789 83.311C70.4487 82.3724 68.3149 81.8813 66.1498 81.8774C64.6979 81.8774 63.2939 82.0947 61.9729 82.4957C53.4155 66.1952 38.615 58.0909 23.6028 49.617V47.9829ZM127.148 49.5363C126.879 49.5383 126.613 49.591 126.365 49.6913C126.118 49.7916 125.893 49.9377 125.705 50.1211C125.516 50.3045 125.367 50.5217 125.266 50.7602C125.165 50.9988 125.114 51.254 125.116 51.5114C125.118 51.7688 125.173 52.0233 125.278 52.2603C125.383 52.4974 125.535 52.7123 125.727 52.8929C125.919 53.0735 126.145 53.2162 126.395 53.3129C126.644 53.4096 126.91 53.4583 127.179 53.4563C127.722 53.4523 128.242 53.242 128.623 52.8716C129.004 52.5012 129.215 52.001 129.211 51.4812C129.207 50.9614 128.987 50.4644 128.6 50.0997C128.213 49.735 127.691 49.5323 127.148 49.5363ZM119.8 49.7021L117.161 52.408C117.313 52.6847 117.532 52.9225 117.8 53.1016C118.068 53.2807 118.377 53.3958 118.7 53.4373C119.024 53.4789 119.354 53.4457 119.661 53.3404C119.969 53.2352 120.246 53.061 120.469 52.8324C120.692 52.6038 120.854 52.3275 120.943 52.0265C121.032 51.7254 121.044 51.4085 120.978 51.1021C120.913 50.7957 120.772 50.5087 120.567 50.2652C120.362 50.0216 120.099 49.8285 119.8 49.7021ZM123.053 53.4563C122.784 53.4583 122.518 53.511 122.27 53.6113C122.023 53.7116 121.798 53.8577 121.61 54.0411C121.421 54.2245 121.272 54.4417 121.171 54.6802C121.07 54.9188 121.019 55.174 121.021 55.4314C121.023 55.6888 121.078 55.9433 121.183 56.1803C121.288 56.4174 121.44 56.6323 121.632 56.8129C121.824 56.9935 122.05 57.1362 122.3 57.2329C122.549 57.3296 122.815 57.3783 123.084 57.3763C123.627 57.3723 124.147 57.162 124.528 56.7916C124.909 56.4212 125.12 55.921 125.116 55.4012C125.112 54.8814 124.892 54.3844 124.505 54.0197C124.118 53.655 123.596 53.4523 123.053 53.4563ZM115.891 53.7117L113.173 56.4994C113.344 56.746 113.571 56.9524 113.838 57.103C114.104 57.2536 114.402 57.3445 114.711 57.3689C115.019 57.3933 115.329 57.3506 115.617 57.2439C115.906 57.1372 116.165 56.9693 116.376 56.7529C116.587 56.5365 116.744 56.2771 116.836 55.9943C116.927 55.7114 116.95 55.4125 116.903 55.1198C116.857 54.8272 116.741 54.5485 116.566 54.3046C116.391 54.0607 116.16 53.858 115.891 53.7117ZM118.957 57.3763C118.688 57.3784 118.422 57.4311 118.174 57.5315C117.927 57.6319 117.702 57.778 117.514 57.9615C117.325 58.1449 117.176 58.3622 117.075 58.6007C116.974 58.8393 116.923 59.0946 116.925 59.352C116.928 59.6094 116.983 59.8639 117.088 60.1009C117.192 60.3379 117.345 60.5528 117.537 60.7333C117.728 60.9139 117.955 61.0565 118.205 61.1531C118.454 61.2497 118.72 61.2984 118.989 61.2963C119.532 61.2923 120.052 61.082 120.433 60.7116C120.814 60.3412 121.025 59.841 121.021 59.3212C121.017 58.8014 120.797 58.3044 120.41 57.9397C120.023 57.575 119.5 57.3723 118.957 57.3763ZM127.148 57.3763C126.879 57.3784 126.613 57.4311 126.365 57.5315C126.118 57.6319 125.893 57.778 125.705 57.9615C125.516 58.1449 125.367 58.3622 125.266 58.6007C125.165 58.8393 125.115 59.0946 125.117 59.352C125.119 59.6094 125.174 59.8639 125.279 60.1009C125.384 60.3379 125.536 60.5528 125.728 60.7333C125.92 60.9139 126.147 61.0565 126.396 61.1531C126.645 61.2497 126.912 61.2984 127.181 61.2963C127.724 61.2923 128.243 61.082 128.624 60.7116C129.005 60.3412 129.216 59.841 129.212 59.3212C129.208 58.8014 128.988 58.3044 128.601 57.9397C128.214 57.575 127.691 57.3723 127.148 57.3763ZM23.6039 58.7741C37.0332 66.4349 48.5495 73.6398 55.1717 87.0238C53.2915 89.3064 52.1555 92.1725 52.1555 95.2782C52.1555 98.9944 53.7724 102.371 56.3581 104.808C54.9962 108.442 53.398 111.898 51.65 115.281H46.5863L49.8038 109.948L46.385 108.059L47.603 106.037L42.868 103.421L35.7134 115.281H23.5993V76.1184L32.5895 81.2502L38.1798 72.2768L23.6004 63.953L23.6039 58.7741ZM93.3886 71.7694C96.103 72.2006 98.7355 72.8021 101.263 73.5278C100.986 73.754 100.778 74.0466 100.659 74.3755C100.539 74.7044 100.514 75.0577 100.585 75.3992C100.656 75.7406 100.82 76.0579 101.061 76.3183C101.303 76.5787 101.612 76.7729 101.958 76.881C102.303 76.989 102.673 77.0069 103.028 76.9329C103.384 76.8589 103.712 76.6957 103.98 76.4599C104.247 76.2242 104.444 75.9245 104.551 75.5917C104.657 75.2588 104.669 74.9048 104.585 74.5661C106.187 75.107 107.733 75.6861 109.23 76.2909C109.434 76.5181 109.688 76.6979 109.975 76.8163C110.262 76.9347 110.574 76.9887 110.886 76.9741C111.645 77.2989 112.379 77.6282 113.105 77.9597C112.967 78.1912 112.88 78.4473 112.849 78.7123C112.818 78.9772 112.844 79.2454 112.924 79.5006C113.005 79.7557 113.14 79.9923 113.319 80.196C113.499 80.3997 113.72 80.5662 113.97 80.6852C114.219 80.8042 114.491 80.8733 114.769 80.8882C115.047 80.9032 115.325 80.8636 115.587 80.7721C115.848 80.6805 116.088 80.5388 116.29 80.3556C116.493 80.1725 116.654 79.9517 116.764 79.7069C117.575 80.1134 118.273 80.4998 119.028 80.8986C119.005 80.8975 118.983 80.8967 118.96 80.8963C118.504 80.8993 118.062 81.0481 117.704 81.3189C117.346 81.5898 117.093 81.9672 116.985 82.3914C116.877 82.8156 116.92 83.2622 117.107 83.6604C117.294 84.0586 117.615 84.3856 118.018 84.5895C118.422 84.7934 118.885 84.8625 119.334 84.7859C119.783 84.7092 120.192 84.4912 120.497 84.1665C120.802 83.8417 120.985 83.4288 121.017 82.9932C121.049 82.5576 120.928 82.1244 120.673 81.7621C124.413 83.7893 127.362 85.5477 129.246 86.4347C129.193 86.7166 129.206 87.0061 129.284 87.2826C129.361 87.5592 129.501 87.8162 129.693 88.0356C129.885 88.255 130.125 88.4314 130.396 88.5525C130.667 88.6735 130.962 88.7363 131.261 88.7363C131.311 88.7363 131.355 88.7195 131.404 88.7162V92.6698C131.357 92.6664 131.311 92.6563 131.26 92.6563H131.245C130.702 92.6582 130.182 92.8666 129.8 93.2355C129.417 93.6045 129.203 94.1038 129.205 94.6236C129.207 95.1434 129.425 95.6412 129.81 96.0074C130.196 96.3736 130.717 96.5782 131.26 96.5763C131.309 96.5763 131.356 96.5662 131.404 96.5629V100.51C131.357 100.506 131.311 100.496 131.26 100.496C130.717 100.496 130.197 100.703 129.813 101.07C129.429 101.438 129.213 101.936 129.213 102.456C129.213 102.976 129.429 103.475 129.813 103.842C130.197 104.21 130.717 104.416 131.26 104.416C131.309 104.416 131.356 104.406 131.404 104.403V115.281H90.5455C87.3865 109.659 83.8882 104.308 79.0853 100.359C79.8912 98.5049 80.2455 96.4999 80.1212 94.4957C79.9969 92.4914 79.3974 90.5406 78.3681 88.7912C81.437 84.5274 87.0027 78.4491 93.3839 71.7694H93.3886ZM98.5015 76.9763C98.2464 76.9763 97.9937 77.0211 97.7562 77.1107C97.5428 78.302 97.5065 79.5161 97.6486 80.7171C97.9267 80.8395 98.23 80.9007 98.5361 80.8961C98.8423 80.8915 99.1434 80.8212 99.4174 80.6904C99.6914 80.5597 99.9313 80.3717 100.119 80.1405C100.307 79.9093 100.439 79.6406 100.504 79.3543C100.57 79.0679 100.567 78.7712 100.497 78.486C100.426 78.2008 100.29 77.9343 100.098 77.7061C99.9057 77.478 99.6625 77.294 99.3863 77.1677C99.11 77.0414 98.8076 76.976 98.5015 76.9763ZM106.691 76.9763C106.148 76.9763 105.628 77.1828 105.244 77.5504C104.86 77.918 104.644 78.4165 104.644 78.9363C104.644 79.4561 104.86 79.9547 105.244 80.3222C105.628 80.6898 106.148 80.8963 106.691 80.8963C107.235 80.8963 107.755 80.6898 108.139 80.3222C108.523 79.9547 108.739 79.4561 108.739 78.9363C108.739 78.4165 108.523 77.918 108.139 77.5504C107.755 77.1828 107.235 76.9763 106.691 76.9763ZM40.2952 80.6802L36.0563 87.7082L33.212 92.4234L40.5537 96.4822L43.3992 91.7659L46.3148 93.3787L50.5537 86.3496L47.6381 84.7368L40.2952 80.6802ZM102.58 80.8963C102.311 80.8983 102.045 80.951 101.798 81.0513C101.55 81.1516 101.326 81.2977 101.137 81.4811C100.756 81.8515 100.544 82.3516 100.548 82.8714C100.553 83.3913 100.772 83.8882 101.159 84.2529C101.546 84.6177 102.069 84.8203 102.612 84.8163C103.155 84.8123 103.674 84.602 104.055 84.2316C104.436 83.8612 104.648 83.361 104.643 82.8412C104.639 82.3214 104.419 81.8244 104.033 81.4597C103.646 81.095 103.123 80.8923 102.58 80.8963ZM110.77 80.8963C110.501 80.8983 110.235 80.951 109.988 81.0513C109.74 81.1516 109.516 81.2977 109.327 81.4811C108.946 81.8515 108.734 82.3516 108.738 82.8714C108.743 83.3913 108.962 83.8882 109.349 84.2529C109.736 84.6177 110.259 84.8203 110.802 84.8163C111.345 84.8123 111.864 84.602 112.245 84.2316C112.626 83.8612 112.838 83.361 112.833 82.8412C112.829 82.3214 112.609 81.8244 112.223 81.4597C111.836 81.095 111.313 80.8923 110.77 80.8963ZM106.675 84.8163C106.406 84.8183 106.14 84.871 105.893 84.9713C105.645 85.0716 105.421 85.2177 105.232 85.4011C105.043 85.5845 104.894 85.8017 104.793 86.0402C104.692 86.2788 104.641 86.534 104.643 86.7914C104.645 87.0488 104.7 87.3033 104.805 87.5403C104.91 87.7774 105.063 87.9923 105.254 88.1729C105.446 88.3535 105.673 88.4962 105.922 88.5929C106.171 88.6896 106.438 88.7383 106.707 88.7363C107.25 88.7323 107.769 88.522 108.15 88.1516C108.531 87.7812 108.743 87.281 108.738 86.7612C108.734 86.2414 108.514 85.7444 108.128 85.3797C107.741 85.015 107.218 84.8123 106.675 84.8163ZM114.865 84.8163C114.596 84.8183 114.33 84.871 114.083 84.9713C113.835 85.0716 113.611 85.2177 113.422 85.4011C113.233 85.5845 113.084 85.8017 112.983 86.0402C112.882 86.2788 112.831 86.534 112.833 86.7914C112.835 87.0488 112.89 87.3033 112.995 87.5403C113.1 87.7774 113.253 87.9923 113.444 88.1729C113.636 88.3535 113.863 88.4962 114.112 88.5929C114.361 88.6896 114.628 88.7383 114.897 88.7363C115.44 88.7323 115.959 88.522 116.34 88.1516C116.721 87.7812 116.933 87.281 116.928 86.7612C116.924 86.2414 116.704 85.7444 116.318 85.3797C115.931 85.015 115.408 84.8123 114.865 84.8163ZM123.055 84.8163C122.786 84.8183 122.52 84.871 122.273 84.9713C122.025 85.0716 121.801 85.2177 121.612 85.4011C121.423 85.5845 121.274 85.8017 121.173 86.0402C121.072 86.2788 121.021 86.534 121.023 86.7914C121.025 87.0488 121.08 87.3033 121.185 87.5403C121.29 87.7774 121.443 87.9923 121.634 88.1729C121.826 88.3535 122.053 88.4962 122.302 88.5929C122.551 88.6896 122.818 88.7383 123.087 88.7363C123.63 88.7323 124.149 88.522 124.53 88.1516C124.911 87.7812 125.123 87.281 125.118 86.7612C125.114 86.2414 124.894 85.7444 124.508 85.3797C124.121 85.015 123.598 84.8123 123.055 84.8163ZM98.8209 84.8398C98.8361 84.8746 98.8455 84.9082 98.8619 84.9429C98.8394 86.2047 98.7851 87.4658 98.6992 88.7251C99.1939 88.6777 99.6536 88.4596 99.9926 88.1116C100.332 87.7635 100.527 87.3093 100.542 86.8336C100.557 86.3579 100.39 85.8933 100.074 85.5265C99.757 85.1596 99.3117 84.9155 98.8209 84.8398ZM66.1522 88.0386C65.1577 88.0343 64.1722 88.2186 63.2526 88.581C62.333 88.9434 61.4975 89.4766 60.7944 90.1499C60.0913 90.8231 59.5345 91.6231 59.1562 92.5035C58.778 93.3839 58.5857 94.3274 58.5905 95.2794C58.5857 96.2312 58.778 97.1746 59.1563 98.0549C59.5346 98.9352 60.0914 99.735 60.7945 100.408C61.4976 101.081 62.3332 101.614 63.2528 101.976C64.1724 102.338 65.1578 102.523 66.1522 102.518C67.1466 102.523 68.1322 102.338 69.0519 101.976C69.9717 101.614 70.8073 101.081 71.5106 100.408C72.2139 99.7351 72.771 98.9353 73.1495 98.055C73.5281 97.1747 73.7207 96.2313 73.7162 95.2794C73.7209 94.3272 73.5284 93.3837 73.1499 92.5032C72.7714 91.6227 72.2144 90.8227 71.5111 90.1494C70.8078 89.4762 69.9721 88.943 69.0523 88.5807C68.1325 88.2184 67.1468 88.0341 66.1522 88.0386ZM102.58 88.7363C102.311 88.7383 102.045 88.791 101.798 88.8913C101.55 88.9916 101.326 89.1377 101.137 89.3211C100.948 89.5045 100.799 89.7217 100.698 89.9602C100.597 90.1988 100.546 90.454 100.548 90.7114C100.55 90.9688 100.605 91.2233 100.71 91.4603C100.815 91.6974 100.968 91.9123 101.159 92.0929C101.351 92.2735 101.578 92.4162 101.827 92.5129C102.076 92.6096 102.343 92.6583 102.612 92.6563C103.155 92.6523 103.674 92.442 104.055 92.0716C104.436 91.7012 104.648 91.201 104.643 90.6812C104.639 90.1614 104.419 89.6644 104.033 89.2997C103.646 88.935 103.123 88.7323 102.58 88.7363ZM110.77 88.7363C110.501 88.7383 110.235 88.791 109.988 88.8913C109.74 88.9916 109.516 89.1377 109.327 89.3211C109.138 89.5045 108.989 89.7217 108.888 89.9602C108.787 90.1988 108.736 90.454 108.738 90.7114C108.74 90.9688 108.795 91.2233 108.9 91.4603C109.005 91.6974 109.158 91.9123 109.349 92.0929C109.541 92.2735 109.768 92.4162 110.017 92.5129C110.266 92.6096 110.533 92.6583 110.802 92.6563C111.345 92.6523 111.864 92.442 112.245 92.0716C112.626 91.7012 112.838 91.201 112.833 90.6812C112.829 90.1614 112.609 89.6644 112.223 89.2997C111.836 88.935 111.313 88.7323 110.77 88.7363ZM118.96 88.7363C118.691 88.7383 118.425 88.791 118.178 88.8913C117.93 88.9916 117.706 89.1377 117.517 89.3211C117.328 89.5045 117.179 89.7217 117.078 89.9602C116.977 90.1988 116.926 90.454 116.928 90.7114C116.93 90.9688 116.985 91.2233 117.09 91.4603C117.195 91.6974 117.348 91.9123 117.539 92.0929C117.731 92.2735 117.958 92.4162 118.207 92.5129C118.456 92.6096 118.723 92.6583 118.992 92.6563C119.535 92.6523 120.054 92.442 120.435 92.0716C120.816 91.7012 121.028 91.201 121.023 90.6812C121.019 90.1614 120.799 89.6644 120.413 89.2997C120.026 88.935 119.503 88.7323 118.96 88.7363ZM127.15 88.7363C126.881 88.7383 126.615 88.791 126.368 88.8913C126.12 88.9916 125.896 89.1377 125.707 89.3211C125.518 89.5045 125.369 89.7217 125.268 89.9602C125.167 90.1988 125.116 90.454 125.118 90.7114C125.12 90.9688 125.175 91.2233 125.28 91.4603C125.385 91.6974 125.538 91.9123 125.729 92.0929C125.921 92.2735 126.148 92.4162 126.397 92.5129C126.646 92.6096 126.913 92.6583 127.182 92.6563C127.725 92.6523 128.244 92.442 128.625 92.0716C129.006 91.7012 129.218 91.201 129.213 90.6812C129.209 90.1614 128.989 89.6644 128.603 89.2997C128.216 88.935 127.693 88.7323 127.15 88.7363ZM66.1522 89.7186C69.4083 89.7186 71.9612 92.1624 71.9612 95.2794C71.9612 98.3963 69.4083 100.838 66.1522 100.838C62.8961 100.838 60.3455 98.3963 60.3455 95.2794C60.3455 92.1624 62.8961 89.7186 66.1522 89.7186ZM106.675 92.6563C106.406 92.6583 106.14 92.711 105.893 92.8113C105.645 92.9116 105.421 93.0577 105.232 93.2411C105.043 93.4245 104.894 93.6417 104.793 93.8802C104.692 94.1188 104.641 94.3741 104.643 94.6314C104.645 94.8888 104.7 95.1433 104.805 95.3803C104.91 95.6174 105.063 95.8323 105.254 96.0129C105.446 96.1935 105.673 96.3362 105.922 96.4329C106.171 96.5296 106.438 96.5783 106.707 96.5763C107.25 96.5723 107.769 96.362 108.15 95.9916C108.531 95.6211 108.743 95.121 108.738 94.6012C108.734 94.0814 108.514 93.5844 108.128 93.2197C107.741 92.855 107.218 92.6523 106.675 92.6563ZM114.865 92.6563C114.596 92.6583 114.33 92.711 114.083 92.8113C113.835 92.9116 113.611 93.0577 113.422 93.2411C113.233 93.4245 113.084 93.6417 112.983 93.8802C112.882 94.1188 112.831 94.3741 112.833 94.6314C112.835 94.8888 112.89 95.1433 112.995 95.3803C113.1 95.6174 113.253 95.8323 113.444 96.0129C113.636 96.1935 113.863 96.3362 114.112 96.4329C114.361 96.5296 114.628 96.5783 114.897 96.5763C115.44 96.5723 115.959 96.362 116.34 95.9916C116.721 95.6211 116.933 95.121 116.928 94.6012C116.924 94.0814 116.704 93.5844 116.318 93.2197C115.931 92.855 115.408 92.6523 114.865 92.6563ZM123.055 92.6563C122.786 92.6583 122.52 92.711 122.273 92.8113C122.025 92.9116 121.801 93.0577 121.612 93.2411C121.423 93.4245 121.274 93.6417 121.173 93.8802C121.072 94.1188 121.021 94.3741 121.023 94.6314C121.025 94.8888 121.08 95.1433 121.185 95.3803C121.29 95.6174 121.443 95.8323 121.634 96.0129C121.826 96.1935 122.053 96.3362 122.302 96.4329C122.551 96.5296 122.818 96.5783 123.087 96.5763C123.63 96.5723 124.149 96.362 124.53 95.9916C124.911 95.6211 125.123 95.121 125.118 94.6012C125.114 94.0814 124.894 93.5844 124.508 93.2197C124.121 92.855 123.598 92.6523 123.055 92.6563ZM98.8431 92.6821C99.1052 93.3048 99.613 93.7965 100.533 94.3778C100.479 93.9586 100.286 93.5672 99.9817 93.2616C99.6773 92.9561 99.278 92.7528 98.8431 92.6821ZM110.77 96.5763C110.501 96.5783 110.235 96.631 109.988 96.7313C109.74 96.8316 109.516 96.9777 109.327 97.1611C109.138 97.3445 108.989 97.5617 108.888 97.8002C108.787 98.0388 108.736 98.2941 108.738 98.5514C108.74 98.8088 108.795 99.0633 108.9 99.3003C109.005 99.5374 109.158 99.7523 109.349 99.9329C109.541 100.114 109.768 100.256 110.017 100.353C110.266 100.45 110.533 100.498 110.802 100.496C111.345 100.492 111.864 100.282 112.245 99.9116C112.626 99.5411 112.838 99.041 112.833 98.5212C112.829 98.0014 112.609 97.5044 112.223 97.1397C111.836 96.775 111.313 96.5723 110.77 96.5763ZM118.96 96.5763C118.691 96.5783 118.425 96.631 118.178 96.7313C117.93 96.8316 117.706 96.9777 117.517 97.1611C117.328 97.3445 117.179 97.5617 117.078 97.8002C116.977 98.0388 116.926 98.2941 116.928 98.5514C116.93 98.8088 116.985 99.0633 117.09 99.3003C117.195 99.5374 117.348 99.7523 117.539 99.9329C117.731 100.114 117.958 100.256 118.207 100.353C118.456 100.45 118.723 100.498 118.992 100.496C119.535 100.492 120.054 100.282 120.435 99.9116C120.816 99.5411 121.028 99.041 121.023 98.5212C121.019 98.0014 120.799 97.5044 120.413 97.1397C120.026 96.775 119.503 96.5723 118.96 96.5763ZM127.15 96.5763C126.881 96.5783 126.615 96.631 126.368 96.7313C126.12 96.8316 125.896 96.9777 125.707 97.1611C125.518 97.3445 125.369 97.5617 125.268 97.8002C125.167 98.0388 125.116 98.2941 125.118 98.5514C125.12 98.8088 125.175 99.0633 125.28 99.3003C125.385 99.5374 125.538 99.7523 125.729 99.9329C125.921 100.114 126.148 100.256 126.397 100.353C126.646 100.45 126.913 100.498 127.182 100.496C127.725 100.492 128.244 100.282 128.625 99.9116C129.006 99.5411 129.218 99.041 129.213 98.5212C129.209 98.0014 128.989 97.5044 128.603 97.1397C128.216 96.775 127.693 96.5723 127.15 96.5763ZM95.9977 98.5621C92.2209 98.5621 89.1216 101.53 89.1216 105.144C89.1216 108.76 92.2221 111.724 95.9977 111.724C99.7733 111.724 102.871 108.76 102.871 105.144C102.871 101.53 99.7733 98.5621 95.9977 98.5621ZM114.874 100.496C114.474 100.496 114.083 100.609 113.749 100.819C113.414 101.03 113.152 101.33 112.994 101.681C112.836 102.033 112.788 102.422 112.858 102.799C112.928 103.176 113.112 103.525 113.387 103.804L116.385 103.78C116.653 103.5 116.831 103.151 116.895 102.775C116.96 102.4 116.909 102.015 116.749 101.667C116.589 101.319 116.327 101.023 115.994 100.815C115.662 100.607 115.272 100.496 114.874 100.496ZM123.066 100.496C122.674 100.497 122.29 100.605 121.96 100.807C121.63 101.01 121.368 101.299 121.205 101.641C121.042 101.982 120.985 102.361 121.04 102.732C121.095 103.104 121.261 103.452 121.517 103.736L124.638 103.71C124.887 103.423 125.046 103.075 125.096 102.706C125.145 102.337 125.084 101.961 124.919 101.624C124.754 101.287 124.492 101.001 124.164 100.801C123.836 100.602 123.455 100.496 123.066 100.496ZM95.9989 101.921C96.4417 101.918 96.8808 101.999 97.2905 102.16C97.7003 102.321 98.0725 102.558 98.3855 102.858C98.6986 103.158 98.9462 103.514 99.1139 103.907C99.2817 104.299 99.3662 104.719 99.3626 105.143C99.3662 105.567 99.2816 105.987 99.1139 106.379C98.9461 106.772 98.6985 107.128 98.3854 107.428C98.0723 107.727 97.7001 107.964 97.2904 108.125C96.8806 108.286 96.4416 108.367 95.9989 108.363C95.556 108.367 95.1169 108.286 94.707 108.125C94.2972 107.965 93.9248 107.728 93.6115 107.428C93.2983 107.128 93.0504 106.772 92.8824 106.38C92.7144 105.987 92.6295 105.567 92.6328 105.143C92.6293 104.719 92.7141 104.299 92.882 103.906C93.05 103.514 93.2978 103.157 93.611 102.857C93.9243 102.558 94.2967 102.32 94.7067 102.16C95.1166 101.999 95.5559 101.918 95.9989 101.921ZM73.8707 106.423C76.4072 108.587 78.7542 111.695 81.0287 115.28H60.7105C61.7623 113.064 62.772 110.809 63.6835 108.453C64.4861 108.592 65.3063 108.677 66.1475 108.677C68.9941 108.677 71.6512 107.842 73.8707 106.423Z" fill="white"/>
<defs>
<linearGradient id="paint0_linear_218_256" x1="-8.84997e-08" y1="77" x2="155" y2="77" gradientUnits="userSpaceOnUse">
<stop stop-color="#974416"/>
<stop offset="1" stop-color="#E65100"/>
</linearGradient>
</defs>
</svg>
