<svg width="192" height="195" viewBox="0 0 192 195" fill="none" xmlns="http://www.w3.org/2000/svg">
<path d="M87.6082 117.28L70.6242 101.908L62.5042 90.6588V71.9103H51.0562L59.9202 68.5385V64.4109L80.9642 49.0385L83.1762 61.0391L130.8 94.7822L146.308 108.282L135.6 104.158L145.2 112.409L127.852 106.783L165.876 134.903L174 143.902L164.396 141.278L129.696 114.656H118.252L87.6082 117.28Z" stroke="#111A75" stroke-linecap="round" stroke-linejoin="round"/>
<path d="M102.044 116.045L95.544 124.78L107.36 115.586M85.74 115.586L79.856 122.529L82.796 112.925" stroke="#111A75" stroke-linecap="round" stroke-linejoin="round"/>
<path d="M18 109.781L126.188 128.716L146.864 145.962M59.92 64.4109H75.98L62.504 71.9103M127.852 106.783L107.36 96.4721L103.852 88.4081L84.1 86.8887L81.516 71.9103L70.624 81.0956L62.504 90.6587" stroke="#111A75" stroke-linecap="round" stroke-linejoin="round"/>
</svg>
