<svg width="512" height="512" viewBox="0 0 512 512" fill="none" xmlns="http://www.w3.org/2000/svg">
<path d="M139.7 23.52C130.6 54.06 123.2 85.16 127 115.1C131.2 147.8 148 180 192.7 210.8C139.1 285.6 106.6 415.2 133.4 488.5C144.3 434.5 147.6 390.7 186.9 343.9C264.4 318.3 310.8 306.3 327.2 218.2C333.4 203.5 339.8 198.9 359.1 193.5C369.7 190.6 381.3 186 381.2 174.3C381 125 352.9 105.9 323.6 106.4C294.2 106.9 263.6 127 258.2 156.2C252.2 158 246.3 160.7 240.5 164.2C177.6 120.5 158.4 78.34 139.7 23.52ZM32.0298 107C42.8298 134.2 58.4698 161.6 81.2298 183.1C105.5 206 137.7 222.4 182.1 225.3C147.6 201.1 127.3 175 116.9 148.1C87.4998 137.2 60.4298 123.1 32.0298 107ZM332.1 133.3C335.332 133.311 338.429 134.599 340.715 136.885C343.001 139.171 344.289 142.268 344.3 145.5C344.289 148.732 343.001 151.829 340.715 154.115C338.429 156.401 335.332 157.689 332.1 157.7C328.867 157.689 325.77 156.401 323.485 154.115C321.199 151.829 319.91 148.732 319.9 145.5C319.91 142.268 321.199 139.171 323.485 136.885C325.77 134.599 328.867 133.311 332.1 133.3ZM392.1 189.4C388.6 194.5 385 199.6 376 202.6C409.9 227.9 455.1 279.1 480 307.6C468.8 274.4 424.2 219 392.1 189.4Z" fill="#3B48C8"/>
</svg>
